<svg width="50" height="50" viewBox="0 0 50 50" fill="none" xmlns="http://www.w3.org/2000/svg">
<path fill-rule="evenodd" clip-rule="evenodd" d="M46.5018 0.921556C46.417 0.47517 46.0776 0.122959 45.6391 0.0261287C45.2006 -0.0707012 44.7473 0.106484 44.4867 0.476588L40.6454 5.93206C36.3424 2.23283 30.7686 4.99852e-05 24.6821 4.99852e-05C11.0505 4.99852e-05 0 11.1929 0 25C0 38.8071 11.0505 50 24.6821 50C31.4906 50 37.657 47.2063 42.1212 42.6915C42.557 42.2509 42.5607 41.5369 42.1295 41.0917L35.6088 34.3575C35.3985 34.1403 35.1109 34.0176 34.8105 34.0168C34.5101 34.0161 34.2219 34.1375 34.0106 34.3537C31.6303 36.789 28.3309 38.2955 24.6821 38.2955C17.4326 38.2955 11.5557 32.3429 11.5557 25C11.5557 17.6572 17.4326 11.7046 24.6821 11.7046C27.6912 11.7046 30.935 13.0177 33.2679 14.8367L29.9208 19.3141C29.66 19.663 29.6202 20.1327 29.8185 20.5216C30.0169 20.9105 30.4182 21.1494 30.8501 21.1358L48.9129 20.5677C49.2414 20.5573 49.5488 20.4017 49.7541 20.1418C49.9594 19.8818 50.0419 19.5438 49.9798 19.217L46.5018 0.921556Z" fill="white"/>
</svg>
