<svg width="486" height="93" viewBox="0 0 486 93" fill="none" xmlns="http://www.w3.org/2000/svg">
<path d="M1 90.6328C1 91.1851 1.44772 91.6328 2 91.6328H34.3851C34.9374 91.6328 35.3851 91.1851 35.3851 90.6328V88.0761C35.3851 86.9125 34.7907 86.1049 34.0684 85.5409C33.4412 85.051 32.6406 84.6864 31.9645 84.3784C31.915 84.3559 31.8661 84.3336 31.818 84.3116C31.0505 83.9608 30.437 83.6626 30.0023 83.29C29.6151 82.9581 29.4194 82.6112 29.4194 82.1104V56.691L50.5 56.691C50.8916 56.691 51.4721 56.8672 52.2234 57.2685C52.9521 57.6578 53.7428 58.2046 54.5271 58.8176C56.0942 60.0423 57.5451 61.4593 58.2929 62.2071C58.5789 62.4931 59.009 62.5787 59.3827 62.4239C59.7564 62.2691 60 61.9045 60 61.5L60 34C60 33.5955 59.7564 33.2309 59.3827 33.0761C59.009 32.9213 58.5789 33.0069 58.2929 33.2929C58.1035 33.4823 57.8872 33.7034 57.6484 33.9474C56.7917 34.823 55.647 35.9931 54.4275 37.0462C53.6511 37.7167 52.8762 38.3111 52.1625 38.733C51.4243 39.1694 50.8675 39.3507 50.5 39.3507L29.4194 39.3507V18.3403H56.1172C57.3199 18.3403 58.0328 18.6354 58.5266 19.0058C59.0518 19.3997 59.4198 19.9411 59.8463 20.6342C59.8828 20.6935 59.92 20.7545 59.9581 20.8169C60.3326 21.4308 60.7906 22.1815 61.4462 22.7626C62.2265 23.4543 63.2391 23.8798 64.6396 23.8798C65.1918 23.8798 65.6396 23.4321 65.6396 22.8798V2C65.6396 1.44772 65.1918 1 64.6396 1H2C1.44772 1 1 1.44772 1 2C1 3.20417 1.54997 4.06705 2.25641 4.71461C2.80934 5.22146 3.51724 5.64417 4.13697 6.01423C4.24931 6.08131 4.35876 6.14667 4.46386 6.21048C5.20426 6.66001 5.82133 7.07996 6.26469 7.61305C6.67962 8.11195 6.96567 8.73966 6.96567 9.67015V82.1104C6.96567 82.6112 6.76998 82.9581 6.38274 83.29C5.94807 83.6626 5.33455 83.9608 4.56708 84.3116C4.51898 84.3336 4.47009 84.3559 4.42054 84.3784C3.74451 84.6864 2.94391 85.051 2.31664 85.5409C1.59438 86.1049 1 86.9125 1 88.0761V90.6328Z" fill="white" stroke="black" stroke-width="2" stroke-linejoin="round"/>
<path d="M111.5 22.7321C111.103 22.7321 110.744 22.9664 110.585 23.3294C110.323 23.9253 110.248 24.5182 110.363 25.1086C110.473 25.676 110.745 26.1697 111.052 26.6031C111.358 27.0336 111.742 27.4631 112.128 27.887C112.188 27.952 112.247 28.0173 112.307 28.0829C112.651 28.4585 113.007 28.8479 113.372 29.2855C115.036 31.2774 116.904 34.2717 116.904 40V82.1104V90.6328C116.904 91.1851 117.352 91.6328 117.904 91.6328H144.324C144.876 91.6328 145.324 91.1851 145.324 90.6328V88.0761C145.324 86.9125 144.729 86.1049 144.007 85.5409C143.38 85.051 142.579 84.6864 141.903 84.3785C141.854 84.3559 141.805 84.3336 141.757 84.3116C140.989 83.9608 140.376 83.6626 139.941 83.29C139.554 82.9581 139.358 82.6112 139.358 82.1104V55.2649C139.358 50.9065 142.885 46.8963 147.424 44.3949C149.663 43.1615 152.062 42.3482 154.23 42.0683C156.419 41.7855 158.245 42.0609 159.459 42.8412C159.767 43.039 160.158 43.053 160.479 42.8777C160.8 42.7024 161 42.3658 161 42C161 39.2116 162.439 32.481 167.18 27.8569C167.412 27.631 167.52 27.3068 167.47 26.987C167.42 26.6673 167.219 26.3914 166.929 26.2466C165.935 25.7497 164.027 25.2251 161.7 24.8676C159.343 24.5055 156.46 24.3002 153.475 24.4919C148.491 24.812 143.022 26.2575 139.358 30.1397V23.7321C139.358 23.1798 138.91 22.7321 138.358 22.7321H125.148H111.5Z" fill="white" stroke="black" stroke-width="2" stroke-linejoin="round"/>
<path d="M265 22.4709C264.54 22.4709 264.14 22.784 264.029 23.23C263.68 24.6394 264.161 25.7054 264.877 26.6273C265.217 27.0653 265.632 27.4993 266.042 27.9281L266.072 27.9602C266.484 28.3904 266.911 28.8367 267.344 29.3494C269.06 31.3835 270.966 34.5721 270.966 41.1649V82.2753V90.7977C270.966 91.35 271.413 91.7977 271.966 91.7977H295.385C295.937 91.7977 296.385 91.35 296.385 90.7977V88.241C296.385 87.0774 295.791 86.2698 295.068 85.7058C294.441 85.2159 293.641 84.8513 292.965 84.5434C292.915 84.5208 292.866 84.4985 292.818 84.4765C292.05 84.1257 291.437 83.8275 291.002 83.4549C290.615 83.123 290.419 82.7761 290.419 82.2753V49.4642C290.419 49.4412 290.419 49.4183 290.417 49.3954C290.286 47.4965 290.668 45.1039 292.147 43.2081C293.593 41.3536 296.219 39.8112 300.925 39.8112C305.514 39.8112 308.276 41.7553 309.949 44.5925C311.669 47.5089 312.282 51.4519 312.282 55.4298V82.2753C312.282 82.7761 312.086 83.123 311.699 83.4549C311.264 83.8275 310.651 84.1257 309.883 84.4765C309.835 84.4985 309.786 84.5208 309.737 84.5434C309.061 84.8513 308.26 85.2159 307.633 85.7058C306.911 86.2698 306.316 87.0774 306.316 88.241V90.7977C306.316 91.35 306.764 91.7977 307.316 91.7977H337.145C337.697 91.7977 338.145 91.35 338.145 90.7977V88.241C338.145 87.0774 337.55 86.2698 336.828 85.7058C336.201 85.2159 335.4 84.8513 334.724 84.5434C334.675 84.5208 334.626 84.4985 334.578 84.4765C333.81 84.1257 333.197 83.8275 332.762 83.4549C332.375 83.123 332.179 82.7761 332.179 82.2753V49.0382C332.179 41.6853 330.883 36.4814 328.629 32.7059C326.363 28.9115 323.192 26.6617 319.649 25.1115C316.093 23.5559 310.071 22.2485 304.101 22.6867C299.092 23.0543 293.967 24.6678 290.419 28.5542V23.4709C290.419 22.9186 289.972 22.4709 289.419 22.4709H265Z" fill="white" stroke="black" stroke-width="2" stroke-linejoin="round"/>
<path d="M374.949 74.3487C374.848 74.0476 374.611 73.8121 374.309 73.7139C374.007 73.6158 373.677 73.6667 373.419 73.8512C372.809 74.2867 371.818 74.7194 370.64 74.9932C369.471 75.2651 368.192 75.3624 367.027 75.1905C365.862 75.0185 364.873 74.5884 364.178 73.8628C363.497 73.152 363 72.0552 363 70.344V39H372C372.552 39 373 38.5523 373 38V23C373 22.4477 372.552 22 372 22H363V3C363 2.65257 362.82 2.33004 362.524 2.14809C362.228 1.96614 361.858 1.95086 361.548 2.10773L345.548 10.204C345.212 10.3742 345 10.7192 345 11.0963V22H336C335.448 22 335 22.4477 335 23V38C335 38.5523 335.448 39 336 39H345V73.7529C345 73.7733 345.001 73.7937 345.002 73.8141C345.334 79.2326 347.135 83.2958 349.869 86.1722C352.595 89.0405 356.177 90.6541 359.952 91.3102C367.448 92.6129 375.947 90.1802 380.671 85.9065C380.874 85.7227 380.993 85.4637 381 85.1899C381.006 84.9161 380.901 84.6515 380.707 84.4578C380.063 83.8136 378.871 82.0495 377.679 79.9785C376.5 77.9306 375.416 75.7508 374.949 74.3487Z" fill="white" stroke="black" stroke-width="2" stroke-linejoin="round"/>
<path d="M212.094 32.5486C212.11 32.8331 212.004 33.1109 211.803 33.3124C211.689 33.4265 211.516 33.6629 211.298 34.0559C211.088 34.4351 210.863 34.9075 210.632 35.4487C210.169 36.5306 209.701 37.8327 209.28 39.0994C208.86 40.363 208.492 41.576 208.229 42.4742C208.097 42.9229 207.992 43.2922 207.92 43.5488C207.884 43.677 207.856 43.7771 207.838 43.8448L207.816 43.9215L207.811 43.9407L207.81 43.9453L207.81 43.9464L207.81 43.9465C207.726 44.2545 207.5 44.5041 207.202 44.6182C206.904 44.7324 206.57 44.6974 206.302 44.5242C206.302 44.5242 206.302 44.5242 206.302 44.5241L206.302 44.5241L206.3 44.5232L206.294 44.5189L206.265 44.5006C206.25 44.4909 206.23 44.4783 206.206 44.463C206.189 44.4521 206.169 44.4399 206.148 44.4263C206.043 44.3608 205.888 44.2642 205.688 44.1419C205.287 43.8972 204.704 43.55 203.984 43.1433C202.541 42.3287 200.554 41.2804 198.369 40.3384C196.178 39.3938 193.822 38.5714 191.635 38.1872C189.426 37.7991 187.532 37.884 186.155 38.5852C183.652 39.8602 182.893 42.3839 183.627 44.7222C184.361 47.0604 186.616 49.2131 190.242 49.4368C194.079 49.6735 199.549 51.0751 203.96 54.5655C208.421 58.0956 211.738 63.7197 211.225 72.1997C210.577 82.9372 203.055 89.2847 193.57 91.1302C184.124 92.9678 172.625 90.3954 163.551 83.3277C163.325 83.1515 163.185 82.8867 163.167 82.6006C163.15 82.3144 163.256 82.0344 163.458 81.8317C163.566 81.7241 163.73 81.4958 163.936 81.1074C164.134 80.7332 164.342 80.2657 164.553 79.7282C164.977 78.6538 165.393 77.3598 165.762 76.0992C166.13 74.8422 166.446 73.6354 166.671 72.7417C166.783 72.2953 166.872 71.9279 166.932 71.6728C166.963 71.5452 166.986 71.4457 167.002 71.3785L167.019 71.3023L167.024 71.2833L167.025 71.2787L167.025 71.2777L167.025 71.2775L167.025 71.2775L168 71.5C168.975 71.7225 168.975 71.7226 168.975 71.7227L168.975 71.7232L168.974 71.7247L168.973 71.7303L168.968 71.7514L168.95 71.832C168.939 71.8766 168.926 71.9342 168.909 72.0039L212.094 32.5486ZM212.094 32.5486C212.078 32.2641 211.941 32 211.718 31.8227C202.136 24.2 190.722 21.6494 181.474 23.6804C172.181 25.7213 165.068 32.4152 164.422 43.1046C163.911 51.5734 167.121 57.1593 171.49 60.6553C175.809 64.1108 181.186 65.4709 185.019 65.7073C188.64 65.9307 190.819 67.5352 191.474 69.2526C192.093 70.8751 191.53 73.1355 188.45 75.165C187.173 76.0062 185.357 76.2528 183.193 76.033C181.048 75.8153 178.705 75.1543 176.509 74.3497C174.319 73.5477 172.314 72.6176 170.853 71.886C170.124 71.5208 169.533 71.2063 169.126 70.984C168.923 70.8728 168.765 70.7848 168.659 70.725C168.607 70.6951 168.567 70.6723 168.54 70.6573L168.511 70.6405L168.505 70.6366L168.503 70.6359L168.503 70.6359M212.094 32.5486L168.503 70.6359M168.503 70.6359C168.503 70.6358 168.503 70.6358 168.503 70.6358C168.503 70.6358 168.503 70.6358 168.503 70.6358L168.503 70.6359Z" fill="white" stroke="black" stroke-width="2" stroke-linejoin="round"/>
<path d="M484.094 32.5486C484.11 32.8331 484.004 33.1109 483.803 33.3124C483.689 33.4265 483.516 33.6629 483.298 34.0559C483.088 34.4351 482.863 34.9075 482.632 35.4488C482.169 36.5307 481.701 37.8327 481.28 39.0994C480.86 40.363 480.492 41.576 480.229 42.4743C480.097 42.923 479.992 43.2922 479.92 43.5488C479.884 43.6771 479.856 43.7771 479.837 43.8448L479.816 43.9215L479.811 43.9407L479.81 43.9453L479.81 43.9464L479.809 43.9466C479.726 44.2546 479.5 44.5041 479.202 44.6183C478.904 44.7324 478.569 44.6974 478.301 44.5242M484.094 32.5486L478.844 43.6844M484.094 32.5486C484.078 32.2641 483.941 32.0001 483.718 31.8227M484.094 32.5486L483.718 31.8227M478.301 44.5242L478.844 43.6844M478.301 44.5242L478.302 44.5242C478.302 44.5242 478.301 44.5242 478.844 43.6844M478.301 44.5242L478.301 44.5241L478.3 44.5232L478.293 44.519L478.265 44.5006C478.239 44.4841 478.2 44.4591 478.147 44.4263C478.043 44.3608 477.888 44.2642 477.688 44.1419C477.287 43.8973 476.704 43.5501 475.984 43.1433C474.541 42.3287 472.554 41.2804 470.369 40.3384C468.178 39.3938 465.822 38.5714 463.635 38.1873C461.426 37.7991 459.532 37.884 458.155 38.5852C455.652 39.8602 454.893 42.3839 455.627 44.7222C456.361 47.0604 458.616 49.2132 462.242 49.4368C466.079 49.6735 471.549 51.0752 475.96 54.5656C480.421 58.0956 483.738 63.7197 483.225 72.1997C482.896 77.6516 480.812 81.9894 477.543 85.1525C474.286 88.304 469.906 90.2388 465.047 91.0052C455.344 92.5357 443.566 89.4398 434.36 81.7682C434.144 81.5884 434.014 81.326 434.001 81.0453C433.988 80.7646 434.094 80.4916 434.293 80.2929C434.636 79.9504 435.142 79.2574 435.738 78.3328C436.32 77.4306 436.944 76.3762 437.521 75.3653C438.096 74.3561 438.62 73.3985 439 72.6926C439.19 72.3399 439.343 72.0506 439.449 71.8498C439.502 71.7494 439.544 71.6712 439.571 71.6182L439.603 71.5582L439.611 71.5432L439.612 71.5395L439.613 71.5387L439.613 71.5385L440.5 72M478.844 43.6844C477.879 43.4223 477.879 43.4222 477.879 43.422L477.88 43.4216L477.88 43.4201L477.882 43.4145L477.887 43.3934L477.91 43.3126C477.922 43.2671 477.938 43.2081 477.958 43.1366C474.711 41.1814 463.36 34.8124 457.701 37.6941C451.713 40.7439 454.12 49.9377 462.18 50.4349C469.558 50.89 483.211 55.8512 482.227 72.1394C480.985 92.7013 453.795 95.9104 435.779 81.6333C435.755 81.6587 435.731 81.6833 435.707 81.7071L435 81L435.64 80.2318C435.641 80.2327 435.643 80.2336 435.644 80.2345C437.056 78.3533 439.117 74.5945 440.032 72.8841L440.02 72.8771L440.01 72.8719L440.008 72.8704L440.007 72.8699C440.007 72.8698 440.006 72.8696 440.5 72M478.844 43.6844C479.387 42.8447 479.387 42.8445 479.387 42.8444L479.386 42.8438L479.384 42.8422L479.374 42.8363L479.341 42.8146C479.311 42.7959 479.268 42.7686 479.213 42.7336C479.187 42.7174 479.159 42.6996 479.127 42.6802C478.948 43.3031 478.844 43.6844 478.844 43.6844ZM440.5 72C440.994 71.1304 440.994 71.1303 440.994 71.1303C440.758 70.9963 440.477 70.9641 440.217 71.041C439.956 71.118 439.738 71.2976 439.613 71.5385L440.5 72ZM440.5 72L440.994 71.1304M440.5 72C441.387 72.4615 441.387 72.4616 441.387 72.4617L441.387 72.462L441.386 72.4632L441.384 72.4674L441.381 72.4744L440.994 71.1304M440.994 71.1304L440.995 71.1311M440.994 71.1304L440.995 71.1311M483.718 31.8227C474.136 24.2001 462.722 21.6495 453.474 23.6804C444.181 25.7213 437.068 32.4153 436.422 43.1046C435.911 51.5735 439.121 57.1593 443.49 60.6553M483.718 31.8227L443.49 60.6553M443.49 60.6553C447.809 64.1108 453.186 65.4709 457.019 65.7074M443.49 60.6553L457.019 65.7074M457.019 65.7074C460.64 65.9307 462.819 67.5352 463.474 69.2527C464.093 70.8751 463.53 73.1355 460.45 75.165C459.161 76.0139 457.365 76.2838 455.252 76.1094M457.019 65.7074L455.252 76.1094M455.252 76.1094C453.155 75.9364 450.876 75.3365 448.744 74.5943M455.252 76.1094L448.744 74.5943M448.744 74.5943C446.618 73.8544 444.676 72.9867 443.264 72.3021M448.744 74.5943L443.264 72.3021M443.264 72.3021C442.558 71.9603 441.987 71.6655 441.594 71.4568M443.264 72.3021L441.594 71.4568M441.594 71.4568C441.398 71.3526 441.246 71.2699 441.144 71.2138M441.594 71.4568L441.144 71.2138M441.144 71.2138C441.093 71.1858 441.055 71.1644 441.029 71.1503M441.144 71.2138L441.029 71.1503M441.029 71.1503L441.001 71.1347M441.029 71.1503L441.001 71.1347M441.001 71.1347L440.995 71.1311M441.001 71.1347L440.995 71.1311" fill="white" stroke="black" stroke-width="2" stroke-linejoin="round"/>
<mask id="path-7-outside-1_90_1974" maskUnits="userSpaceOnUse" x="213" y="21.4709" width="56" height="72" fill="black">
<rect fill="white" x="213" y="21.4709" width="56" height="72"/>
<path fill-rule="evenodd" clip-rule="evenodd" d="M253.925 90.7978H266.282V82.2754V43.4985C266.282 39 264.152 23.4709 242.846 23.4709C225.801 23.4709 219.125 30.0047 216.426 32.8455C219.835 35.8283 222.818 43.9246 222.818 43.9246C228.784 37.1067 251.794 33.2716 250.09 49.8903C215.982 49.8903 215.995 66.118 216 72.6697C216 72.7481 216 72.8252 216 72.9008C216 83.1277 221.966 90.7978 235.176 90.7978C246.596 90.7978 249.095 86.2525 250.09 83.9798C250.09 87.7297 252.22 90.7977 253.925 90.7978ZM250.068 72.9848C250.004 75.0717 249.902 78.4403 239.863 78.4403C233.471 78.4403 232.193 73.3268 232.193 71.6224C232.193 71.52 232.186 71.3886 232.179 71.2321C232.065 68.7827 231.665 60.2195 250.09 61.8216V67.1481V72.4746C250.078 72.633 250.073 72.8041 250.068 72.9848Z"/>
</mask>
<path fill-rule="evenodd" clip-rule="evenodd" d="M253.925 90.7978H266.282V82.2754V43.4985C266.282 39 264.152 23.4709 242.846 23.4709C225.801 23.4709 219.125 30.0047 216.426 32.8455C219.835 35.8283 222.818 43.9246 222.818 43.9246C228.784 37.1067 251.794 33.2716 250.09 49.8903C215.982 49.8903 215.995 66.118 216 72.6697C216 72.7481 216 72.8252 216 72.9008C216 83.1277 221.966 90.7978 235.176 90.7978C246.596 90.7978 249.095 86.2525 250.09 83.9798C250.09 87.7297 252.22 90.7977 253.925 90.7978ZM250.068 72.9848C250.004 75.0717 249.902 78.4403 239.863 78.4403C233.471 78.4403 232.193 73.3268 232.193 71.6224C232.193 71.52 232.186 71.3886 232.179 71.2321C232.065 68.7827 231.665 60.2195 250.09 61.8216V67.1481V72.4746C250.078 72.633 250.073 72.8041 250.068 72.9848Z" fill="white"/>
<path d="M266.282 90.7978V92.7978C267.387 92.7978 268.282 91.9024 268.282 90.7978H266.282ZM253.925 90.7978L253.925 92.7978H253.925V90.7978ZM216.426 32.8455L214.976 31.468C214.601 31.8629 214.403 32.3936 214.428 32.9377C214.454 33.4817 214.699 33.992 215.109 34.3507L216.426 32.8455ZM222.818 43.9246L220.941 44.616C221.185 45.2783 221.76 45.7629 222.454 45.8913C223.148 46.0196 223.859 45.7727 224.323 45.2416L222.818 43.9246ZM250.09 49.8903V51.8903C251.115 51.8903 251.975 51.1146 252.079 50.0943L250.09 49.8903ZM216 72.6697L214 72.6712L216 72.6697ZM216 72.9008L214 72.9008L216 72.9008ZM250.09 83.9798H252.09C252.09 83.0331 251.426 82.216 250.499 82.0222C249.573 81.8284 248.637 82.3108 248.257 83.1782L250.09 83.9798ZM250.068 72.9848L248.068 72.9242L248.068 72.9242L250.068 72.9848ZM232.179 71.2321L230.181 71.3254L230.181 71.3255L232.179 71.2321ZM250.09 61.8216H252.09C252.09 60.7842 251.296 59.919 250.263 59.8291L250.09 61.8216ZM250.09 72.4746L252.084 72.6171C252.088 72.5697 252.09 72.5221 252.09 72.4746H250.09ZM266.282 88.7978H253.925V92.7978H266.282V88.7978ZM264.282 82.2754V90.7978H268.282V82.2754H264.282ZM264.282 43.4985V82.2754H268.282V43.4985H264.282ZM242.846 25.4709C252.942 25.4709 258.158 29.11 260.93 32.9654C263.79 36.9424 264.282 41.478 264.282 43.4985H268.282C268.282 41.0205 267.71 35.5423 264.178 30.6302C260.558 25.5963 254.056 21.4709 242.846 21.4709V25.4709ZM217.876 34.223C219.147 32.885 221.297 30.7347 225.123 28.8955C228.958 27.0517 234.587 25.4709 242.846 25.4709V21.4709C234.06 21.4709 227.828 23.157 223.39 25.2903C218.942 27.4283 216.404 29.9652 214.976 31.468L217.876 34.223ZM222.818 43.9246C224.695 43.2332 224.695 43.2329 224.695 43.2327C224.695 43.2325 224.694 43.2322 224.694 43.2319C224.694 43.2314 224.694 43.2307 224.694 43.2299C224.693 43.2283 224.692 43.2262 224.691 43.2236C224.689 43.2184 224.687 43.2113 224.683 43.2023C224.677 43.1844 224.667 43.1588 224.655 43.1261C224.63 43.0607 224.594 42.9666 224.548 42.847C224.455 42.608 224.32 42.2667 224.147 41.8492C223.803 41.0158 223.306 39.8707 222.697 38.6252C221.525 36.2276 219.78 33.1227 217.743 31.3404L215.109 34.3507C216.481 35.5512 217.932 37.9858 219.104 40.382C219.667 41.5335 220.129 42.5989 220.45 43.3768C220.611 43.7649 220.735 44.0794 220.819 44.2948C220.861 44.4025 220.892 44.4852 220.913 44.5398C220.923 44.5671 220.931 44.5874 220.936 44.6003C220.938 44.6067 220.94 44.6112 220.941 44.6139C220.941 44.6152 220.941 44.616 220.942 44.6164C220.942 44.6166 220.942 44.6166 220.942 44.6166C220.942 44.6165 220.942 44.6164 220.942 44.6164C220.942 44.6162 220.941 44.616 222.818 43.9246ZM252.079 50.0943C252.555 45.4581 251.314 41.9109 248.749 39.5242C246.262 37.2103 242.825 36.265 239.415 36.1205C235.98 35.975 232.341 36.6272 229.164 37.7596C226.023 38.8793 223.115 40.5481 221.313 42.6076L224.323 45.2416C225.504 43.8922 227.709 42.5248 230.507 41.5273C233.27 40.5424 236.395 39.9962 239.246 40.1169C242.121 40.2388 244.489 41.0246 246.024 42.4526C247.481 43.8078 248.477 46.0132 248.1 49.6862L252.079 50.0943ZM218 72.6681C217.998 69.3873 218.036 64.4005 221.759 60.1389C225.468 55.8935 233.289 51.8903 250.09 51.8903V47.8903C232.783 47.8903 223.557 52.0009 218.747 57.5073C213.95 62.9975 213.998 69.4004 214 72.6712L218 72.6681ZM218 72.9008C218 72.8243 218 72.7464 218 72.6681L214 72.6712C214 72.7498 214 72.8261 214 72.9008L218 72.9008ZM235.176 88.7978C228.96 88.7978 224.735 87.0022 222.06 84.2821C219.376 81.552 218 77.6342 218 72.9008L214 72.9008C214 78.3943 215.608 83.425 219.208 87.0867C222.819 90.7584 228.182 92.7978 235.176 92.7978V88.7978ZM248.257 83.1782C247.836 84.1405 247.165 85.4463 245.449 86.5661C243.695 87.7109 240.633 88.7978 235.176 88.7978V92.7978C241.138 92.7978 245.036 91.6121 247.635 89.916C250.273 88.195 251.349 86.0918 251.922 84.7815L248.257 83.1782ZM253.925 88.7978C254.096 88.7978 254.068 88.8652 253.844 88.6888C253.635 88.5243 253.359 88.2235 253.08 87.7617C252.524 86.839 252.09 85.492 252.09 83.9798H248.09C248.09 86.2175 248.721 88.2795 249.656 89.8283C250.123 90.6022 250.699 91.3029 251.369 91.8308C252.024 92.3468 252.902 92.7978 253.925 92.7978L253.925 88.7978ZM239.863 80.4403C244.987 80.4403 248.149 79.6052 250.007 78.0144C252.021 76.2904 252.035 74.0782 252.067 73.0454L248.068 72.9242C248.037 73.9782 247.969 74.4938 247.406 74.9758C246.687 75.591 244.778 76.4403 239.863 76.4403V80.4403ZM230.193 71.6224C230.193 72.8338 230.612 74.9784 232.031 76.8705C233.532 78.8717 236.045 80.4403 239.863 80.4403V76.4403C237.288 76.4403 235.967 75.4521 235.231 74.4705C234.413 73.3798 234.193 72.1154 234.193 71.6224H230.193ZM230.181 71.3255C230.189 71.5001 230.193 71.5775 230.193 71.6224H234.193C234.193 71.4626 234.183 71.277 234.177 71.1388L230.181 71.3255ZM250.263 59.8291C240.846 59.0103 235.571 60.7159 232.75 63.6119C229.915 66.5219 230.123 70.0839 230.181 71.3254L234.177 71.1388C234.12 69.9309 234.072 67.9866 235.615 66.4032C237.171 64.8057 240.908 63.0308 249.916 63.8141L250.263 59.8291ZM252.09 67.1481V61.8216H248.09V67.1481H252.09ZM252.09 72.4746V67.1481H248.09V72.4746H252.09ZM252.067 73.0454C252.072 72.855 252.077 72.7269 252.084 72.6171L248.095 72.3321C248.08 72.5392 248.074 72.7532 248.068 72.9242L252.067 73.0454Z" fill="black" mask="url(#path-7-outside-1_90_1974)"/>
<mask id="path-9-outside-2_90_1974" maskUnits="userSpaceOnUse" x="59.6567" y="21.306" width="55" height="72" fill="black">
<rect fill="white" x="59.6567" y="21.306" width="55" height="72"/>
<path fill-rule="evenodd" clip-rule="evenodd" d="M99.5816 90.6329H111.939V82.1105V43.3336C111.939 39.4985 109.808 23.306 88.5025 23.306C78.5 23.306 68.5 27 66 29.5V43.5C71.9656 36.6821 97.451 33.1067 95.7465 49.7254C61.6392 49.7254 61.6518 65.9531 61.6569 72.5048C61.6569 72.5832 61.657 72.6603 61.657 72.7359C61.657 82.9628 67.6227 90.6329 80.8324 90.6329C92.2524 90.6329 94.7523 86.0876 95.7465 83.8149C95.7465 87.5648 97.8771 90.6328 99.5816 90.6329ZM95.7463 61.6567V72.3097C95.7349 72.4681 95.7297 72.6392 95.7243 72.8199C95.661 74.9067 95.5589 78.2754 85.5194 78.2754C79.1276 78.2754 77.8492 73.1619 77.8492 71.4574C77.8492 71.3551 77.8431 71.2236 77.8358 71.0672C77.7214 68.6178 77.3214 60.0545 95.7463 61.6567Z"/>
</mask>
<path fill-rule="evenodd" clip-rule="evenodd" d="M99.5816 90.6329H111.939V82.1105V43.3336C111.939 39.4985 109.808 23.306 88.5025 23.306C78.5 23.306 68.5 27 66 29.5V43.5C71.9656 36.6821 97.451 33.1067 95.7465 49.7254C61.6392 49.7254 61.6518 65.9531 61.6569 72.5048C61.6569 72.5832 61.657 72.6603 61.657 72.7359C61.657 82.9628 67.6227 90.6329 80.8324 90.6329C92.2524 90.6329 94.7523 86.0876 95.7465 83.8149C95.7465 87.5648 97.8771 90.6328 99.5816 90.6329ZM95.7463 61.6567V72.3097C95.7349 72.4681 95.7297 72.6392 95.7243 72.8199C95.661 74.9067 95.5589 78.2754 85.5194 78.2754C79.1276 78.2754 77.8492 73.1619 77.8492 71.4574C77.8492 71.3551 77.8431 71.2236 77.8358 71.0672C77.7214 68.6178 77.3214 60.0545 95.7463 61.6567Z" fill="white"/>
<path d="M111.939 90.6329V92.6329C113.044 92.6329 113.939 91.7375 113.939 90.6329H111.939ZM99.5816 90.6329L99.5815 92.6329H99.5816V90.6329ZM66 29.5L64.5858 28.0858C64.2107 28.4609 64 28.9696 64 29.5H66ZM66 43.5H64C64 44.3332 64.5166 45.0791 65.2965 45.3722C66.0765 45.6653 66.9565 45.4441 67.5052 44.817L66 43.5ZM95.7465 49.7254V51.7254C96.7721 51.7254 97.6315 50.9496 97.7361 49.9294L95.7465 49.7254ZM61.6569 72.5048L59.6569 72.5063L61.6569 72.5048ZM61.657 72.7359H63.657H61.657ZM95.7465 83.8149H97.7465C97.7465 82.8682 97.0827 82.0511 96.156 81.8573C95.2293 81.6634 94.2937 82.1459 93.9142 83.0133L95.7465 83.8149ZM95.7463 72.3097L97.7412 72.4522C97.7446 72.4048 97.7463 72.3572 97.7463 72.3097H95.7463ZM95.7463 61.6567H97.7463C97.7463 60.6193 96.953 59.7541 95.9195 59.6642L95.7463 61.6567ZM95.7243 72.8199L93.7252 72.7592V72.7593L95.7243 72.8199ZM77.8358 71.0672L75.838 71.1605V71.1605L77.8358 71.0672ZM111.939 88.6329H99.5816V92.6329H111.939V88.6329ZM109.939 82.1105V90.6329H113.939V82.1105H109.939ZM109.939 43.3336V82.1105H113.939V43.3336H109.939ZM88.5025 25.306C98.5651 25.306 103.788 29.0852 106.577 33.035C109.455 37.1122 109.939 41.6652 109.939 43.3336H113.939C113.939 41.1668 113.358 35.7061 109.844 30.7283C106.241 25.6231 99.7458 21.306 88.5025 21.306V25.306ZM67.4142 30.9142C67.8008 30.5276 68.6544 29.9445 70.0337 29.2785C71.3706 28.633 73.0689 27.9724 75.0199 27.3789C78.9281 26.1899 83.7311 25.306 88.5025 25.306V21.306C83.2713 21.306 78.0732 22.269 73.8557 23.5521C71.7439 24.1945 69.8483 24.9262 68.2945 25.6765C66.7831 26.4062 65.4492 27.2224 64.5858 28.0858L67.4142 30.9142ZM68 43.5V29.5H64V43.5H68ZM97.7361 49.9294C98.22 45.211 96.7626 41.6342 93.9475 39.2553C91.2397 36.967 87.5308 36.0031 83.8454 35.8263C80.1279 35.6479 76.1954 36.2559 72.7895 37.3563C69.4377 38.4391 66.3302 40.0854 64.4948 42.183L67.5052 44.817C68.6526 43.5056 70.9679 42.1483 74.0192 41.1626C77.0164 40.1943 80.4672 39.6688 83.6537 39.8217C86.8723 39.9761 89.588 40.8082 91.3657 42.3105C93.0362 43.7221 94.1253 45.9304 93.757 49.5213L97.7361 49.9294ZM63.6569 72.5032C63.6543 69.2223 63.6928 64.2356 67.4158 59.974C71.1246 55.7286 78.946 51.7254 95.7465 51.7254V47.7254C78.4398 47.7254 69.2138 51.836 64.4034 57.3424C59.6071 62.8326 59.6543 69.2355 59.6569 72.5063L63.6569 72.5032ZM63.657 72.7359C63.657 72.6594 63.6569 72.5815 63.6569 72.5032L59.6569 72.5063C59.6569 72.5849 59.657 72.6612 59.657 72.7359H63.657ZM80.8324 88.6329C74.6167 88.6329 70.3918 86.8372 67.7171 84.1172C65.0325 81.3871 63.657 77.4693 63.657 72.7359H59.657C59.657 78.2294 61.2643 83.26 64.865 86.9218C68.4755 90.5935 73.8383 92.6329 80.8324 92.6329V88.6329ZM93.9142 83.0133C93.4932 83.9756 92.8222 85.2814 91.1061 86.4012C89.3519 87.5459 86.2897 88.6329 80.8324 88.6329V92.6329C86.795 92.6329 90.6928 91.4472 93.2921 89.7511C95.9295 88.03 97.0056 85.9268 97.5788 84.6166L93.9142 83.0133ZM99.5817 88.6329C99.7526 88.6329 99.7249 88.7003 99.5011 88.5239C99.2922 88.3594 99.016 88.0586 98.7373 87.5968C98.1805 86.6741 97.7465 85.3271 97.7465 83.8149H93.7465C93.7465 86.0526 94.3779 88.1146 95.3125 89.6634C95.7795 90.4373 96.3555 91.138 97.0255 91.6659C97.6805 92.1819 98.5584 92.6329 99.5815 92.6329L99.5817 88.6329ZM97.7463 72.3097V61.6567H93.7463V72.3097H97.7463ZM97.7234 72.8805C97.7291 72.6901 97.7333 72.562 97.7412 72.4522L93.7513 72.1672C93.7365 72.3742 93.7304 72.5883 93.7252 72.7592L97.7234 72.8805ZM85.5194 80.2754C90.6436 80.2754 93.8054 79.4403 95.6636 77.8495C97.6773 76.1255 97.692 73.9133 97.7234 72.8805L93.7252 72.7593C93.6932 73.8133 93.6253 74.3288 93.0622 74.8109C92.3436 75.4261 90.4347 76.2754 85.5194 76.2754V80.2754ZM75.8492 71.4574C75.8492 72.6689 76.2683 74.8134 77.6874 76.7056C79.1883 78.7068 81.7018 80.2754 85.5194 80.2754V76.2754C82.9452 76.2754 81.6236 75.2872 80.8874 74.3056C80.0694 73.2149 79.8492 71.9505 79.8492 71.4574H75.8492ZM75.838 71.1605C75.8461 71.3352 75.8492 71.4126 75.8492 71.4574H79.8492C79.8492 71.2977 79.8401 71.1121 79.8336 70.9739L75.838 71.1605ZM95.9195 59.6642C86.5025 58.8453 81.2276 60.551 78.4062 63.447C75.5713 66.3569 75.78 69.919 75.838 71.1605L79.8336 70.9739C79.7772 69.766 79.7287 67.8217 81.2714 66.2382C82.8277 64.6408 86.5651 62.8659 95.573 63.6492L95.9195 59.6642Z" fill="black" mask="url(#path-9-outside-2_90_1974)"/>
<mask id="path-11-outside-3_90_1974" maskUnits="userSpaceOnUse" x="374" y="21.4709" width="61" height="72" fill="black">
<rect fill="white" x="374" y="21.4709" width="61" height="72"/>
<path fill-rule="evenodd" clip-rule="evenodd" d="M421.202 70.344C422.987 72.7719 428.447 77.1619 430.577 78.4402C430.392 78.6638 430.2 78.8987 430.001 79.1429C426.458 83.4845 420.489 90.7977 406.288 90.7977C387.539 90.7977 376.034 75.0313 376.034 55.8559C375.608 44.3507 378.846 23.4709 405.436 23.4709C432.026 23.4709 432.708 48.0438 432.282 60.9694H391.374C391.374 73.7529 406.288 83.5537 421.202 70.344ZM391.276 48.038H417.776C417.703 47.7623 417.679 47.2845 417.648 46.6703C417.471 43.1128 417.064 34.9761 405.436 34.9761C394.528 34.9761 391.134 43.2087 391.276 48.038Z"/>
</mask>
<path fill-rule="evenodd" clip-rule="evenodd" d="M421.202 70.344C422.987 72.7719 428.447 77.1619 430.577 78.4402C430.392 78.6638 430.2 78.8987 430.001 79.1429C426.458 83.4845 420.489 90.7977 406.288 90.7977C387.539 90.7977 376.034 75.0313 376.034 55.8559C375.608 44.3507 378.846 23.4709 405.436 23.4709C432.026 23.4709 432.708 48.0438 432.282 60.9694H391.374C391.374 73.7529 406.288 83.5537 421.202 70.344ZM391.276 48.038H417.776C417.703 47.7623 417.679 47.2845 417.648 46.6703C417.471 43.1128 417.064 34.9761 405.436 34.9761C394.528 34.9761 391.134 43.2087 391.276 48.038Z" fill="white"/>
<path d="M430.577 78.4402L432.118 79.7153C432.49 79.2662 432.647 78.6773 432.548 78.1027C432.45 77.5282 432.106 77.0251 431.606 76.7252L430.577 78.4402ZM421.202 70.344L422.814 69.1595C422.481 68.7066 421.973 68.4147 421.414 68.3552C420.855 68.2957 420.297 68.4741 419.876 68.8468L421.202 70.344ZM430.001 79.1429L428.452 77.8783V77.8783L430.001 79.1429ZM376.034 55.8559H378.034C378.034 55.8312 378.034 55.8066 378.033 55.7819L376.034 55.8559ZM432.282 60.9694V62.9694C433.36 62.9694 434.245 62.1136 434.28 61.0353L432.282 60.9694ZM391.374 60.9694V58.9694C390.27 58.9694 389.374 59.8648 389.374 60.9694H391.374ZM417.776 48.038V50.038C418.398 50.038 418.984 49.7492 419.362 49.2563C419.741 48.7635 419.869 48.1227 419.709 47.5222L417.776 48.038ZM391.276 48.038L389.277 48.0968C389.309 49.178 390.195 50.038 391.276 50.038V48.038ZM417.648 46.6703L419.646 46.5706V46.5706L417.648 46.6703ZM431.606 76.7252C430.677 76.1681 428.875 74.8314 427.048 73.2931C425.197 71.7354 423.552 70.1634 422.814 69.1595L419.591 71.5284C420.638 72.9525 422.614 74.7894 424.472 76.3533C426.353 77.9365 428.346 79.434 429.548 80.1552L431.606 76.7252ZM431.55 80.4076C431.751 80.1622 431.938 79.9327 432.118 79.7153L429.036 77.1652C428.846 77.3949 428.65 77.6352 428.452 77.8783L431.55 80.4076ZM406.288 92.7977C413.761 92.7977 419.178 90.8654 423.218 88.2837C427.224 85.7237 429.776 82.5813 431.55 80.4076L428.452 77.8783C426.682 80.0462 424.479 82.7311 421.064 84.9132C417.684 87.0735 413.017 88.7977 406.288 88.7977V92.7977ZM374.034 55.8559C374.034 65.828 377.025 75.0355 382.586 81.789C388.176 88.5766 396.3 92.7977 406.288 92.7977V88.7977C397.527 88.7977 390.524 85.1356 385.674 79.2462C380.796 73.3226 378.034 65.0592 378.034 55.8559H374.034ZM405.436 21.4709C391.519 21.4709 383.379 26.9925 378.899 34.304C374.518 41.4522 373.816 50.0148 374.035 55.9299L378.033 55.7819C377.826 50.1918 378.53 42.5619 382.309 36.3939C385.989 30.3891 392.764 25.4709 405.436 25.4709V21.4709ZM434.28 61.0353C434.494 54.5682 434.462 44.7786 430.818 36.5622C428.976 32.4095 426.189 28.6014 422.01 25.8431C417.829 23.0835 412.4 21.4709 405.436 21.4709V25.4709C411.768 25.4709 416.395 26.9299 419.807 29.1816C423.22 31.4347 425.562 34.5776 427.162 38.1838C430.4 45.4853 430.496 54.4449 430.283 60.9035L434.28 61.0353ZM391.374 62.9694H432.282V58.9694H391.374V62.9694ZM419.876 68.8468C412.88 75.0436 406.23 75.6001 401.483 73.5658C396.645 71.4924 393.374 66.5825 393.374 60.9694H389.374C389.374 68.1398 393.56 74.522 399.908 77.2424C406.347 80.002 414.611 78.854 422.529 71.8411L419.876 68.8468ZM417.776 46.038H391.276V50.038H417.776V46.038ZM415.651 46.7701C415.675 47.2613 415.701 48.0181 415.844 48.5539L419.709 47.5222C419.718 47.5586 419.717 47.563 419.71 47.5166C419.704 47.4739 419.697 47.4097 419.689 47.3169C419.674 47.1252 419.662 46.8879 419.646 46.5706L415.651 46.7701ZM405.436 36.9761C410.718 36.9761 413.013 38.7782 414.149 40.5628C415.406 42.5381 415.56 44.9449 415.651 46.7701L419.646 46.5706C419.559 44.8381 419.421 41.3979 417.523 38.4155C415.504 35.2423 411.782 32.9761 405.436 32.9761V36.9761ZM393.275 47.9793C393.217 45.9975 393.901 43.2184 395.755 40.9682C397.549 38.7925 400.546 36.9761 405.436 36.9761V32.9761C399.418 32.9761 395.264 35.276 392.669 38.4239C390.136 41.4973 389.193 45.2492 389.277 48.0968L393.275 47.9793Z" fill="black" mask="url(#path-11-outside-3_90_1974)"/>
</svg>
