<svg width="75" height="75" viewBox="0 0 75 75" fill="none" xmlns="http://www.w3.org/2000/svg">
<path fill-rule="evenodd" clip-rule="evenodd" d="M14.4474 14.4474C17.044 11.8509 21.2539 11.8509 23.8504 14.4474L37.5 27.5013L51.1496 14.4474C53.7461 11.8509 57.956 11.8509 60.5526 14.4474C63.1491 17.044 63.1491 21.2539 60.5526 23.8504L47.4987 37.5L60.5525 51.1496C63.149 53.7461 63.149 57.956 60.5525 60.5526C57.9559 63.1491 53.746 63.1491 51.1495 60.5526L37.5 47.4988L23.8505 60.5526C21.254 63.1491 17.0441 63.1491 14.4475 60.5526C11.851 57.956 11.851 53.7461 14.4475 51.1496L27.5013 37.5L14.4474 23.8504C11.8509 21.2539 11.8509 17.044 14.4474 14.4474Z" fill="#FF0000" stroke="black" stroke-width="4" stroke-linecap="round"/>
</svg>
