<svg width="75" height="75" viewBox="0 0 75 75" fill="none" xmlns="http://www.w3.org/2000/svg">
<path d="M68.5346 30.091L68.5345 30.0912L40.7175 57.9259C37.9534 60.6914 33.4723 60.6914 30.7081 57.9259L15.0735 42.2837C12.3088 39.5177 12.3088 35.0327 15.0735 32.2668C17.8376 29.5013 22.3188 29.5013 25.0829 32.2668C25.1473 32.3312 25.2161 32.3912 25.2888 32.4463L34.5042 39.4365C35.2676 40.0155 36.3344 39.9718 37.0479 39.3322L58.4457 20.1494C58.4729 20.125 58.4994 20.0999 58.5252 20.0741C61.2893 17.3086 65.7705 17.3086 68.5346 20.0741C71.2993 22.8401 71.2993 27.325 68.5346 30.091Z" fill="#22D91F" stroke="black" stroke-width="4" stroke-linecap="round" stroke-linejoin="round"/>
</svg>
