<svg width="75" height="75" viewBox="0 0 75 75" fill="none" xmlns="http://www.w3.org/2000/svg">
<path fill-rule="evenodd" clip-rule="evenodd" d="M37.898 20.6043C36.112 20.4877 33.2499 20.9353 29.9302 23.9367C27.2596 26.3511 22.605 26.6064 19.5338 24.5069C16.4626 22.4074 16.1379 18.748 18.8085 16.3336C24.7003 11.0068 31.9325 8.58788 39.1182 9.05718C46.0396 9.50923 51.8954 12.5883 55.3811 16.6359C58.8885 20.7087 60.3804 26.2663 57.4163 31.5904C55.0728 35.7999 50.4252 39.0198 44.0206 41.1186V45.2057C44.0206 48.4053 40.7213 50.9991 36.6514 50.9991C32.5815 50.9991 29.2822 48.4053 29.2822 45.2057V36.9543C29.2822 34.314 31.5528 32.0078 34.8039 31.3458C41.3493 30.0132 43.3459 27.9658 43.9145 26.9445C44.4911 25.9088 44.3901 24.541 43.1767 23.1319C41.9415 21.6976 39.9482 20.7382 37.898 20.6043ZM36.6514 54.1717C40.7213 54.1717 43 57.0069 43 60.2065C43 63.4062 40.7213 66 36.6514 66C32.5815 66 30 63.4062 30 60.2065C30 57.0069 32.5815 54.1717 36.6514 54.1717Z" fill="#FFE600" stroke="black" stroke-width="3" stroke-linecap="round" stroke-linejoin="round"/>
</svg>
