<svg width="50" height="50" viewBox="0 0 50 50" fill="none" xmlns="http://www.w3.org/2000/svg">
<path fill-rule="evenodd" clip-rule="evenodd" d="M25 0C28.7656 0 31.8182 3.0526 31.8182 6.81818V18.1818L43.1818 18.1818C46.9474 18.1818 50 21.2344 50 25C50 28.7656 46.9474 31.8182 43.1818 31.8182L31.8182 31.8182L31.8182 43.1818C31.8182 46.9474 28.7656 50 25 50C21.2344 50 18.1818 46.9474 18.1818 43.1818L18.1818 31.8182L6.81818 31.8182C3.0526 31.8182 0 28.7656 0 25C0 21.2344 3.0526 18.1818 6.81818 18.1818L18.1818 18.1818V6.81818C18.1818 3.0526 21.2344 0 25 0Z" fill="white"/>
</svg>
