<svg width="35" height="35" viewBox="0 0 35 35" fill="none" xmlns="http://www.w3.org/2000/svg">
<path fill-rule="evenodd" clip-rule="evenodd" d="M1.3979 1.3979C3.26177 -0.465967 6.28369 -0.465966 8.14756 1.3979L17.5 10.7503L26.8524 1.3979C28.7163 -0.465964 31.7382 -0.465964 33.6021 1.3979C35.466 3.26177 35.466 6.28369 33.6021 8.14756L24.2497 17.5L33.6021 26.8524C35.466 28.7163 35.466 31.7382 33.6021 33.6021C31.7382 35.466 28.7163 35.466 26.8524 33.6021L17.5 24.2497L8.14755 33.6021C6.28369 35.466 3.26176 35.466 1.3979 33.6021C-0.465967 31.7382 -0.465966 28.7163 1.3979 26.8524L10.7503 17.5L1.3979 8.14755C-0.465963 6.28369 -0.465963 3.26176 1.3979 1.3979Z" fill="#F92B2B"/>
</svg>
